<?xml version="1.0" encoding="UTF-8"?><svg id="Capa_2" xmlns="http://www.w3.org/2000/svg" viewBox="0 0 367.59 59.35"><defs><style>.cls-1{fill:#4683c4;stroke:#cddef3;stroke-miterlimit:10;stroke-width:.5px;}</style></defs><g id="letras-logo"><path class="cls-1" d="M.25,59.1V.25h34.13l-1.22,8.35H11.77v17.63h18.59v8.35H11.77v24.53H.25Z"/><path class="cls-1" d="M70.51,59.1l-3.75-13.63h-19.99l-3.75,13.63h-11.96L49.83.25h14.23l18.68,58.85h-12.22ZM49.04,36.96h15.36l-7.68-28.11-7.68,28.11Z"/><path class="cls-1" d="M129.03,32.27c2.53,2.16,3.8,5.45,3.8,9.88,0,6.13-2.21,10.49-6.63,13.07-4.42,2.58-10.62,3.88-18.59,3.88h-18.15V.25h15.8c16.64,0,24.96,5,24.96,14.99,0,3.46-1.08,6.29-3.23,8.47s-4.8,3.59-7.94,4.22c4.13.74,7.46,2.19,9.99,4.34ZM100.97,8.51v15.93h7.07c3.2,0,5.73-.69,7.59-2.09,1.86-1.39,2.79-3.45,2.79-6.18s-.98-4.83-2.93-5.96c-1.95-1.14-4.99-1.7-9.12-1.7h-5.41ZM117.42,48.8c2.24-1.25,3.36-3.6,3.36-7.07s-1.06-5.76-3.19-7.24c-2.13-1.48-5.02-2.21-8.68-2.21h-7.94v18.4h6.72c4.25,0,7.49-.62,9.73-1.87Z"/><path class="cls-1" d="M161.8,35.51h-7.33v23.59h-11.52V.25h17.98c15.94,0,23.91,5.76,23.91,17.29,0,3.92-.99,7.15-2.97,9.71-1.98,2.56-5.06,4.63-9.25,6.22l15.8,25.64h-13.27l-13.35-23.59ZM154.47,27.42h7.16c3.66,0,6.44-.78,8.34-2.34,1.89-1.56,2.83-4.07,2.83-7.54,0-3.18-.97-5.49-2.92-6.94s-5.02-2.17-9.21-2.17h-6.2v18.99Z"/><path class="cls-1" d="M207.79.25v58.85h-11.52V.25h11.52Z"/><path class="cls-1" d="M259.24,6.47c5.61,4.15,8.42,11.78,8.42,22.91s-2.76,18.58-8.29,23.04c-5.53,4.46-12.54,6.69-21.03,6.69h-16.41V.25h14.84c9.37,0,16.86,2.07,22.48,6.22ZM233.45,8.68v41.99h5.67c5.12,0,9.14-1.55,12.04-4.64,2.91-3.09,4.36-8.65,4.36-16.65,0-5.56-.74-9.86-2.22-12.9-1.49-3.04-3.43-5.1-5.85-6.18-2.42-1.08-5.31-1.62-8.68-1.62h-5.32Z"/><path class="cls-1" d="M313.49.25l-1.22,8.35h-22.25v16.44h19.38v8.35h-19.38v17.29h23.83v8.43h-35.35V.25h35Z"/><path class="cls-1" d="M367.25.25l-17.89,58.85h-13.7L317.24.25h12.4l13.09,48.89L355.47.25h11.78Z"/></g></svg>